<svg id="game" xmlns="http://www.w3.org/2000/svg" width="49.842" height="49.842" viewBox="0 0 49.842 49.842">
  <g id="Group_56" data-name="Group 56">
    <g id="Group_55" data-name="Group 55">
      <path id="Path_125" data-name="Path 125" d="M46.747,26.849l-.01-.029a4.031,4.031,0,0,0-5.325-2.005,3.945,3.945,0,0,0-1.285.925,4,4,0,0,0-1.071-.6,3.921,3.921,0,0,0-1.09-.243V0H0V49.842H49.842V34.052ZM35.045,3V25.836a4.03,4.03,0,0,0-1.012,1.3,3.992,3.992,0,0,0-3.651.808L27.1,20.716a4.023,4.023,0,1,0-7.33,3.32l6.143,13.551a6.741,6.741,0,0,0-2.19,2.755H2.92V3ZM2.92,46.922v-3.66H23.169a6.832,6.832,0,0,0,.74,2.872l.389.789Zm44,0H27.55l-1.032-2.112a3.838,3.838,0,0,1,.662-4.459l1,2.21,2.658-1.207-8.4-18.525a1.1,1.1,0,1,1,2.005-.915L31.813,38.17l2.658-1.207-2.492-5.5h0a1.131,1.131,0,0,1-.029-.837,1.11,1.11,0,0,1,.574-.613,1.131,1.131,0,0,1,.837-.029,1.11,1.11,0,0,1,.613.574l2.22,4.9,2.658-1.207-2.22-4.9a1.131,1.131,0,0,1-.029-.837,1.078,1.078,0,0,1,.574-.613,1.131,1.131,0,0,1,.837-.029,1.11,1.11,0,0,1,.613.574l2.22,4.9,2.658-1.207-1.45-3.2a1.131,1.131,0,0,1-.029-.837,1.11,1.11,0,0,1,.574-.613,1.131,1.131,0,0,1,.837-.029,1.091,1.091,0,0,1,.613.565l2.872,6.639Z" fill="#0c101b"/>
    </g>
  </g>
  <path id="Path_126" data-name="Path 126" d="M94.014,88.611H85.7V80.2h8.314Zm-2.92-5.432H88.62v2.473h2.473Z" transform="translate(-77.357 -72.393)" fill="#0c101b"/>
  <path id="Path_127" data-name="Path 127" d="M232.014,88.611H223.7V80.2h8.314Zm-2.92-5.432H226.62v2.473h2.473Z" transform="translate(-201.923 -72.393)" fill="#0c101b"/>
  <path id="Path_128" data-name="Path 128" d="M94.014,217.611H85.7V209.2h8.314Zm-2.92-5.432H88.62v2.473h2.473Z" transform="translate(-77.357 -188.835)" fill="#0c101b"/>
</svg>
