<svg xmlns="http://www.w3.org/2000/svg" width="537.701" height="602" viewBox="0 0 537.701 602">
  <g id="Group_72" data-name="Group 72" transform="translate(-38.649 -24.687)">
    <path id="Path_175" data-name="Path 175" d="M173.351,288.163l9.857-9.858V245.176l9.641-9.639V219.064a3.986,3.986,0,1,0-1.415,0v15.887l-8.933,8.931-7.322-7.322v-17.5a3.986,3.986,0,1,0-1.415,0v18.082l8.03,8.03v32.542l-8.853,8.853-28.587-28.587V216.967l10.79-10.79V161.782a3.986,3.986,0,1,0-1.415,0v43.809l-10.082,10.082L128.86,200.887V182.944L142.7,169.1V125.6l22.361-22.361a3.976,3.976,0,1,0-1-1l-22.776,22.774v43.509L128.86,180.943v-57.69a4.694,4.694,0,1,0-1.415,0v41.765L111.057,148.63v-39.5a3.967,3.967,0,1,0-1.415,0v40.089l17.8,17.8v34.454l15.492,15.493v39.6L130.75,244.382v-21.09L108.567,201.11V171.233a3.963,3.963,0,1,0-1.415,0v28.461L94,186.541V170.992l-10.88-10.88V132.6a3.963,3.963,0,1,0-1.415,0v28.1l10.88,10.88v13.547L56.69,149.233a4,4,0,1,0-1,1L83.61,178.154h-22.9L50.3,167.74a3.981,3.981,0,1,0-1,1l10.122,10.123L49.368,188.914a3.971,3.971,0,1,0,1,1L60.714,179.57H85.026l44.309,44.309v19.088L112.87,226.5a3.976,3.976,0,1,0-1,1l17.672,17.673,42.395,42.393v25.306l97.012,97.015V597.055h1.415V409.3l-97.012-97.012ZM124.874,118.631a3.277,3.277,0,1,1,3.278,3.278A3.282,3.282,0,0,1,124.874,118.631Z" transform="translate(1.841 29.632)" fill="#e5b00c"/>
    <path id="Path_176" data-name="Path 176" d="M138.442,271.822,94.476,227.858V205.018L82.068,192.609V185.88a4.694,4.694,0,1,0-1.415,0V193.2L93.06,205.6v21.839H79.987l-13.03-13.03a4,4,0,1,0-1,1L79.4,228.858H93.475l27.72,27.718H103.817l-9.864-9.864a3.971,3.971,0,1,0-1,1l10.279,10.279H122.61l15.246,15.246h16.834L259.767,378.316V563.593h1.415V377.73L155.275,271.822Zm-60.36-90.565a3.278,3.278,0,1,1,3.278,3.278A3.282,3.282,0,0,1,78.082,181.258Z" transform="translate(8.745 63.094)" fill="#aaa"/>
    <path id="Path_177" data-name="Path 177" d="M166.252,282.726,142.315,258.79H84.85a3.987,3.987,0,1,0,0,1.416h55.464l-7.742,7.744H65.527a3.984,3.984,0,1,0,0,1.415h67.631l8.865-8.866,13.563,13.563H77.248l-7.088,7.088a4,4,0,1,0,1,1l6.674-6.674H157l8.665,8.665h29.421l63.263,63.264V530.8h1.415V346.821l-64.092-64.095Z" transform="translate(7.884 95.892)" fill="#aaa"/>
    <path id="Path_178" data-name="Path 178" d="M181.6,299.845,167.539,285.79H121.856a3.962,3.962,0,1,0,0,1.415h45.1l12.641,12.64H101.853L86.022,284.013a4,4,0,1,0-1,1l16.246,16.246h56.7l-12.8,12.8H107.7a3.963,3.963,0,1,0,0,1.415h38.054L159.97,301.26H208.5l38.793,38.793v181.5h1.415V339.465l-39.622-39.621Z" transform="translate(16.665 105.132)" fill="#aaa"/>
    <path id="Path_179" data-name="Path 179" d="M200.121,316.4,189.5,305.784a3.976,3.976,0,1,0-1,1l9.619,9.621H147.373L142.5,311.53H66.447l-5.666-5.665c.059-.082.137-.146.192-.231a4.813,4.813,0,0,0,.253-4.685,4.181,4.181,0,0,0-2.054-2.052,4.742,4.742,0,0,0-6.361,6.361,4.193,4.193,0,0,0,2.054,2.052,5.111,5.111,0,0,0,2.153.487,4.644,4.644,0,0,0,2.756-.936l6.086,6.083h76.051l4.167,4.167-11.706,11.706H89.067l-6.409,6.409a4,4,0,1,0,1,1l5.994-5.994h28.392l-9.2,9.2a3.967,3.967,0,1,0,1,1l10.2-10.2h14.913l12.413-12.413h63.683l-19.718,19.718h-22.3a3.963,3.963,0,1,0,0,1.415h22.887l21.134-21.134h27.41L256,333.352V512.967h1.415v-180.2L241.053,316.4ZM55.457,306.026a2.811,2.811,0,0,1-1.359-1.359,3.415,3.415,0,0,1,.159-3.329,3.268,3.268,0,0,1,2.763-1.512,3.731,3.731,0,0,1,1.561.357,2.806,2.806,0,0,1,1.359,1.359,3.328,3.328,0,0,1-4.483,4.484Z" transform="translate(5.681 113.72)" fill="#aaa"/>
    <path id="Path_180" data-name="Path 180" d="M340.273,299.566l42.393-42.393,22.255-22.253a4,4,0,1,0-1-1l-21.047,21.047V224.488l13.578-13.578h36.03l4.154-4.153a3.978,3.978,0,1,0-1-1l-3.74,3.74H397.867l25.264-25.263H443.1l9.373-9.374a3.976,3.976,0,1,0-1-1l-8.958,8.96H424.546l26.18-26.181a4,4,0,1,0-1-1l-27.18,27.182h-.008v.007L406.7,198.662V182.843a3.962,3.962,0,1,0-1.415,0v17.234L381.458,223.9v13.832l-12.66-12.66a3.987,3.987,0,1,0-1,1l13.66,13.659V256.38l-42.6,42.6v25.308L241.844,421.3V574.887h1.415v-153l97.013-97.013Z" transform="translate(84.413 51.8)" fill="#aaa"/>
    <path id="Path_181" data-name="Path 181" d="M363.312,295.673l23.938-23.938h37.642l12.04,12.04a3.971,3.971,0,1,0,1-1l-11.039-11.039h40.767l12.654-12.651a3.973,3.973,0,1,0-1-1L467.075,270.32H407.29l10.2-10.2H448.67a3.962,3.962,0,1,0,0-1.415H416.9L405.288,270.32H386.663l-23.936,23.938h-29.42L245.062,382.5v149.81h1.415V383.087l87.415-87.414Z" transform="translate(85.75 94.376)" fill="#aaa"/>
    <path id="Path_182" data-name="Path 182" d="M367.115,309.557l18.517-18.517L398.9,304.312h27.786a3.989,3.989,0,1,0,0-1.415h-27.2L387.34,290.748h73.883l11.693,11.693a3.976,3.976,0,1,0,1-1l-11.4-11.4,12.856-12.856a4.731,4.731,0,1,0-1-1l-13.149,13.149H385.339l-18.81,18.81H315.913l-69.241,69.243V525.308h1.415V377.971L316.5,309.557Zm111.028-39.421a3.278,3.278,0,1,1-3.278,3.277A3.282,3.282,0,0,1,478.143,270.136Z" transform="translate(86.419 101.379)" fill="#aaa"/>
    <path id="Path_183" data-name="Path 183" d="M202.314,250.769l-12.327-12.327,9.674-9.674V209.8a3.986,3.986,0,1,0-1.415,0v18.379l-8.552,8.552V156.117a4.694,4.694,0,1,0-1.415,0v35.346l-9.355-9.356V129.65L192,116.577V74.891a3.963,3.963,0,1,0-1.415,0v41.1l-11.656,11.656V98.467a3.986,3.986,0,1,0-1.415,0v84.226l10.77,10.771v45.271l12.62,12.62v54.1l26.767,26.77V609.094h1.415V331.638l-26.767-26.77ZM185.709,151.5a3.278,3.278,0,1,1,3.278,3.278A3.282,3.282,0,0,1,185.709,151.5Z" transform="translate(56.325 17.593)" fill="#aaa"/>
    <path id="Path_184" data-name="Path 184" d="M218.919,262.671,241.3,240.29V217.48l-10.3-10.3V185.054a3.986,3.986,0,1,0-1.415,0v22.708l10.3,10.3V239.7l-21.674,21.674-6.895-6.895V194.72l6.757-6.759V163.97l24.637-24.636a4.731,4.731,0,1,0-1-1l-25.052,25.05v23.991l-6.05,6.051-9.6-9.6V139.5l23.575-23.574a3.976,3.976,0,1,0-1-1L201.01,137.5V104.913l13.182-13.182V43.087a3.965,3.965,0,1,0-1.415,0V91.145L201.01,102.911V70.988L188.626,58.6a3.976,3.976,0,1,0-1,1l11.969,11.969v67.339l-.136.137.136.136v45.226L209.9,194.72v60.348l7.6,7.6V322.7l9.459,9.461V622.307h1.415V331.576l-9.459-9.461Zm26.562-130.385a3.278,3.278,0,1,1-3.278,3.278A3.282,3.282,0,0,1,245.481,132.285Z" transform="translate(59.307 4.38)" fill="#aaa"/>
    <path id="Path_185" data-name="Path 185" d="M228.97,288.07l5.318-5.319a4,4,0,1,0-1-1l-4.317,4.319V261.5l9.759-9.761V208.145l-10.317-10.317a4,4,0,1,0-1,1l9.9,9.9v42.42L228.97,259.5V226.387l-11.2-11.2a4,4,0,1,0-1,1l10.788,10.788V259.5L216.1,248.042a4,4,0,1,0-1,1L227.555,261.5V311.97l-9.711,9.711V557.358h1.415V322.267l9.711-9.711Z" transform="translate(70.704 69.329)" fill="#aaa"/>
    <path id="Path_186" data-name="Path 186" d="M227.1,361.288l9.8-9.8v-25.6l10.735-10.736V239.811l8.074-8.074V210.249l13.679-13.679V137.336l-8.948-8.948v-8.3a3.987,3.987,0,1,0-1.415,0v8.885l8.948,8.948v58.062l-12.263,12.263V198.226l-13.59-13.59v-3.209l11.488-11.488v-21.3a3.986,3.986,0,1,0-1.415,0v20.712l-10.072,10.072V120.768a3.986,3.986,0,1,0-1.415,0v64.456l13.59,13.588v32.34l-8.074,8.074v75.342L235.485,325.3v25.6l-9.8,9.8v17.36l-8.875,8.876v203.4h1.415V387.524l8.875-8.876Z" transform="translate(74.014 36.35)" fill="#aaa"/>
    <path id="Path_187" data-name="Path 187" d="M248.057,415.645l17.108-17.108V334.418l16.556-16.556V253.555l10.562-10.561V216.247l19.738-19.74V113.051L325.674,99.4a3.971,3.971,0,1,0-1-1l-14.068,14.067v37.55L292.74,132.149V50.2a3.963,3.963,0,1,0-1.415,0V96.033L276.008,80.715V63.144a3.959,3.959,0,1,0-1.415,0V81.3l16.732,16.733v34.7l19.281,19.281v43.905l-19.738,19.74v26.747l-9.147,9.145V197.836l9.384-9.384V165.26a4.7,4.7,0,1,0-1.415,0v22.606l-8.677,8.677-10.6-10.6V119.731a3.986,3.986,0,1,0-1.415,0v66.794l11.309,11.311v119.44l-16.556,16.556v64.119l-17.108,17.108v31.456l-15.21,15.21V619.349h1.415V462.312l15.21-15.21Zm39.062-255.006a3.278,3.278,0,1,1,3.28,3.278A3.282,3.282,0,0,1,287.118,160.639Z" transform="translate(80.087 7.338)" fill="#aaa"/>
    <path id="Path_188" data-name="Path 188" d="M277.223,318.337,297.964,297.6V258.658l11.023-11.023V233.782a3.986,3.986,0,1,0-1.415,0v13.267l-9.608,9.608V225.482l18.323-18.324v-16.5a3.984,3.984,0,1,0-1.415,0v14.5L303.513,193.8v-21.49a3.984,3.984,0,1,0-1.415,0v22.076l12.481,12.483L296.549,224.9v72.113l-20.742,20.742v52.391L233.04,412.907V568.644h1.415V413.493l42.767-42.766Z" transform="translate(80.756 58.043)" fill="#aaa"/>
    <path id="Path_189" data-name="Path 189" d="M292.915,376.856,312.2,357.569V326.1l20.619-20.617V213.587l17.271-17.271V167.592l9.512-9.512V79.647a3.986,3.986,0,1,0-1.415,0V127.28L334.726,103.82a3.981,3.981,0,1,0-1,1l24.463,24.463v28.212l-8.8,8.8-19.642-19.642a4,4,0,1,0-1,1l19.935,19.935V195.73l-16.563,16.562-10.56-10.561V181.273a3.987,3.987,0,1,0-1.415,0v21.045l11.268,11.27v91.306l-20.618,20.617v31.472L291.5,376.27v20.168l-56.852,56.849v153.85h1.415V453.873l56.852-56.849Z" transform="translate(81.424 19.55)" fill="#aaa"/>
    <path id="Path_190" data-name="Path 190" d="M319.555,331.885l35.673-35.673V243.666L428,170.9h0l.054-.054.153-.154h0l11.806-11.806a4.72,4.72,0,1,0-1-1L428.2,168.687V131.565a3.986,3.986,0,1,0-1.415,0V170.1l-19.24,19.238V160.028a3.962,3.962,0,1,0-1.415,0v30.729l-15.422,15.423L379,194.467V163.293a3.958,3.958,0,1,0-1.415,0v31.758l12.129,12.129-34.483,34.483V224.116l12.589-12.589V100.949l7.231-7.231a4,4,0,1,0-1-1l-7.646,7.646V210.941L353.812,223.53v52.679L342.193,264.59v-25.9a4.7,4.7,0,1,0-1.415,0v26.488l13.035,13.035v17.415L318.139,331.3V367.18l-81.881,81.883V601.024h1.415V449.649l81.881-81.883ZM442.763,151.874a3.255,3.255,0,1,1-3.255,3.255A3.259,3.259,0,0,1,442.763,151.874ZM338.206,234.066a3.279,3.279,0,1,1,3.28,3.278A3.283,3.283,0,0,1,338.206,234.066Z" transform="translate(82.092 25.663)" fill="#aaa"/>
    <path id="Path_191" data-name="Path 191" d="M233.868,333.89l17.806-17.806v-56.61l18.834-18.834V190.489a3.987,3.987,0,1,0-1.415,0v48.15l-9.755-9.755V215.273a4.694,4.694,0,1,0-1.415,0v14.2L268.8,240.347l-18.541,18.541V315.5L232.452,333.3v49.577l-9.2,9.2V561.09h1.415V392.664l9.2-9.2Zm21.483-123.238a3.277,3.277,0,1,1,3.278,3.278A3.282,3.282,0,0,1,255.351,210.652Z" transform="translate(76.691 65.597)" fill="#aaa"/>
    <path id="Path_192" data-name="Path 192" d="M235.476,348.105l25.516-25.515V256.162l14.273-14.273v-29.5a3.986,3.986,0,1,0-1.415,0V241.3l-14.273,14.273v66.429L234.061,347.52v28.15l-9.2,9.2V551.991h1.415V385.452l9.2-9.2Z" transform="translate(77.359 74.696)" fill="#aaa"/>
    <path id="Path_193" data-name="Path 193" d="M220.357,326.663v-15.3a3.986,3.986,0,1,0-1.415,0v13.59l-11.779-11.781V289.715a3.986,3.986,0,1,0-1.415,0V313.76l13.195,13.2V343.6L201.715,326.37V278.39l-14.43-14.432V195.569a3.976,3.976,0,1,0-1.415,0v41.55l-5.584-5.584a4,4,0,1,0-1,1l6.585,6.585v25.428l14.43,14.432v45.979l-17.8-17.8V291.7l4.8-4.8v-4.3a3.986,3.986,0,1,0-1.415,0v3.71l-4.8,4.8v14.631l-9.89-9.89V207.229l5.124-5.125V106.226a3.986,3.986,0,1,0-1.415,0v95.292l-4.416,4.418-25.762-25.762,14.916-14.916V138.9a3.986,3.986,0,1,0-1.415,0v25.775l-13.793,13.793V151.888a4.694,4.694,0,1,0-1.415,0v28.579l26.763,26.763v89.209l70.228,70.229V596.1h1.415V366.081l-21.069-21.07Zm-79.908-179.4a3.278,3.278,0,1,1,3.278,3.278A3.282,3.282,0,0,1,140.449,147.266Z" transform="translate(41.703 30.591)" fill="#aaa"/>
    <path id="Path_194" data-name="Path 194" d="M156.607,267.824V243.352a4.694,4.694,0,1,0-1.415,0v23.885l-6.406,6.408v-48.87L161.56,212V185.269a3.986,3.986,0,1,0-1.415,0v26.146L147.37,224.189v51.458l83.482,83.481V563.259h1.415V358.541l-83.189-83.188Zm-3.986-29.093a3.278,3.278,0,1,1,3.278,3.278A3.282,3.282,0,0,1,152.621,238.731Z" transform="translate(45.166 63.428)" fill="#aaa"/>
    <path id="Path_195" data-name="Path 195" d="M487.285,232.241a3.98,3.98,0,0,0-3.271,6.258l-14.389,14.388v-20.82a3.963,3.963,0,1,0-1.415,0V254.3l-16.474,16.474H420.216l17.292-17.294V240.119a3.963,3.963,0,1,0-1.415,0V252.9l-17.878,17.88H396.2V255.768l40.024-40.024h29l16.2-16.2a3.971,3.971,0,1,0-1-1l-15.781,15.781h-27l14.3-14.3a5.348,5.348,0,0,0,2.824.869,4.667,4.667,0,0,0,4.208-2.613,5.114,5.114,0,0,0-.726-5.43l-.135-.134a5.541,5.541,0,0,0-3.347-1.21,4.669,4.669,0,0,0-4.208,2.613,4.99,4.99,0,0,0,.378,4.91l-56.15,56.15V271.19l-27.588,27.588v-21.5l16.616-16.616v-9.641a3.986,3.986,0,1,0-1.415,0v9.054l-16.616,16.616v23.089H349.36L243.453,405.686v151.7h1.415V406.272L349.946,301.195h16.834l29-29h56.539L485.014,239.5a3.984,3.984,0,1,0,2.27-7.258Zm-35.461-37.492a3.509,3.509,0,0,1,5.352-.96,3.659,3.659,0,0,1,.525,3.867,3.512,3.512,0,0,1-5.352.96A3.659,3.659,0,0,1,451.824,194.749Z" transform="translate(85.081 69.303)" fill="#aaa"/>
    <path id="Path_196" data-name="Path 196" d="M210.041,154.547a3.986,3.986,0,1,0,2.27,7.257l7.546,7.546v18.73l-4.316,4.314a4.736,4.736,0,1,0,1,1l4.73-4.729v-19.9l-7.96-7.96a3.982,3.982,0,0,0-3.271-6.256Zm2.73,44.9a3.279,3.279,0,1,1,3.28-3.278A3.282,3.282,0,0,1,212.771,199.443Z" transform="translate(69.545 53.948)" fill="#aaa"/>
    <path id="Path_197" data-name="Path 197" d="M233.1,155.577a3.987,3.987,0,1,0-4.695,3.915V187.1l6.783,6.783v11.834a3.99,3.99,0,1,0,1.415,0V193.294l-6.783-6.783V159.492A3.981,3.981,0,0,0,233.1,155.577Z" transform="translate(77.468 52.72)" fill="#aaa"/>
    <path id="Path_198" data-name="Path 198" d="M179.529,190.486a3.986,3.986,0,1,0,2.27,7.257l5.935,5.935v18.127a3.986,3.986,0,1,0,1.415,0V203.092l-6.35-6.35a3.98,3.98,0,0,0-3.271-6.256Z" transform="translate(56.87 68.878)" fill="#aaa"/>
    <path id="Path_199" data-name="Path 199" d="M164.029,248.88a3.987,3.987,0,1,0,2.27,7.257L205.16,295a4.65,4.65,0,0,0-.923,2.769A4.731,4.731,0,1,0,206.16,294L167.3,255.136a3.98,3.98,0,0,0-3.271-6.256Zm44.9,45.609a3.278,3.278,0,1,1-3.277,3.278A3.282,3.282,0,0,1,208.929,294.489Z" transform="translate(50.431 93.136)" fill="#aaa"/>
    <path id="Path_200" data-name="Path 200" d="M107.935,211.153a3.986,3.986,0,1,0-4.694,3.914V227.19l20.443,20.443a4,4,0,1,0,1-1L104.657,226.6V215.066A3.979,3.979,0,0,0,107.935,211.153Z" transform="translate(25.472 75.807)" fill="#aaa"/>
    <path id="Path_201" data-name="Path 201" d="M141.4,183.067a3.986,3.986,0,1,0-2.27-7.257l-5.161-5.161v-28.48a3.982,3.982,0,1,0-1.415,0v29.064l5.575,5.575a3.98,3.98,0,0,0,3.271,6.256Z" transform="translate(37.651 45.524)" fill="#aaa"/>
    <path id="Path_202" data-name="Path 202" d="M138.667,230.086a3.985,3.985,0,1,0-2.27-7.256l-11.322-11.322V190.351a4.694,4.694,0,1,0-1.415,0v21.744L135.4,223.83a3.98,3.98,0,0,0,3.271,6.256ZM121.088,185.73a3.278,3.278,0,1,1,3.278,3.278A3.282,3.282,0,0,1,121.088,185.73Z" transform="translate(33.66 64.952)" fill="#aaa"/>
    <path id="Path_203" data-name="Path 203" d="M299.342,208.919a3.986,3.986,0,1,0-1.415,0v35.958l-8.634,8.633a4.647,4.647,0,0,0-2.77-.923,4.731,4.731,0,1,0,3.772,1.924l9.047-9.047Zm-12.82,51.639a3.278,3.278,0,1,1,3.28-3.277A3.282,3.282,0,0,1,286.523,260.558Z" transform="translate(101.024 73.253)" fill="#aaa"/>
    <path id="Path_204" data-name="Path 204" d="M345.6,107.134v46.241l15.822-15.823V126.373a3.986,3.986,0,1,0-1.415,0v10.593l-12.991,12.992V107.133a4.69,4.69,0,1,0-1.415,0Zm.708-7.9a3.278,3.278,0,1,1-3.28,3.278A3.282,3.282,0,0,1,346.31,99.233Z" transform="translate(125.861 30.381)" fill="#aaa"/>
    <path id="Path_205" data-name="Path 205" d="M277.669,252.177a4,4,0,1,0-3.271-1.717l-10.987,10.987a3.943,3.943,0,0,0-2.269-.715,4,4,0,1,0,3.27,1.716L275.4,251.461A3.966,3.966,0,0,0,277.669,252.177Z" transform="translate(90.774 91.194)" fill="#aaa"/>
    <path id="Path_206" data-name="Path 206" d="M287.516,57.6V85.714L304.69,68.539a4,4,0,1,0-1-1L288.931,82.3V57.6a3.987,3.987,0,1,0-1.415,0Z" transform="translate(102.024 10.393)" fill="#aaa"/>
    <path id="Path_207" data-name="Path 207" d="M205.972,62.6a3.982,3.982,0,0,0,3.28,3.914V84.456l11.07,11.07L236.7,79.151h0l.074-.076.133-.132h0l18.569-18.57V32.543a3.963,3.963,0,1,0-1.415,0V59.787L236.9,76.942V45.406a3.986,3.986,0,1,0-1.415,0V78.357L220.322,93.525l-9.655-9.656V66.519a3.983,3.983,0,1,0-4.695-3.914Z" transform="translate(69.511 0)" fill="#aaa"/>
    <path id="Path_208" data-name="Path 208" d="M162.8,105.149a4.684,4.684,0,0,0,.708-9.316V82.96l16.752-16.752a4,4,0,1,0-1-1L162.094,82.373V95.832a4.684,4.684,0,0,0,.708,9.316Zm0-7.972a3.278,3.278,0,1,1-3.278,3.278A3.282,3.282,0,0,1,162.8,97.177Z" transform="translate(49.627 14.235)" fill="#aaa"/>
    <path id="Path_209" data-name="Path 209" d="M260.233,66.494v35.861L244.949,117.64V77.293a3.963,3.963,0,1,0-1.415,0V117.64l-14.987-14.988V87.608a3.965,3.965,0,1,0-1.415,0v15.631l17.11,17.111,17.407-17.408V66.494a3.962,3.962,0,1,0-1.415,0Z" transform="translate(76.948 14.104)" fill="#aaa"/>
    <path id="Path_210" data-name="Path 210" d="M157.929,81.411V118.4L132.723,143.6v-5.635a3.961,3.961,0,1,0-1.415,0v9.05l28.037-28.038V81.411a3.963,3.963,0,1,0-1.415,0Z" transform="translate(37.14 20.301)" fill="#aaa"/>
    <path id="Path_211" data-name="Path 211" d="M57.034,266.483l18.054-18.054h15.03l26.631,26.63h41.871l13.073,13.076a4.644,4.644,0,0,0-.923,2.769,4.694,4.694,0,1,0,4.694-4.695,4.637,4.637,0,0,0-2.77.926l-13.488-13.49H117.335l-66.6-66.6a4.74,4.74,0,1,0-1,1L88.7,247.014h-27l-13.8-13.8a3.971,3.971,0,1,0-1,1l14.214,14.214H73.086L56.033,265.482a3.971,3.971,0,1,0,1,1Zm118.43,21.141a3.278,3.278,0,1,1-3.278,3.28A3.282,3.282,0,0,1,175.464,287.624Zm-128.5-80.068a3.278,3.278,0,1,1,3.278-3.278A3.282,3.282,0,0,1,46.969,207.556Z" transform="translate(0.848 72.657)" fill="#aaa"/>
    <path id="Path_212" data-name="Path 212" d="M482.329,320.543a3.959,3.959,0,0,0-3.892,3.256H455.828l-12.433-12.433L448.758,306a4.739,4.739,0,1,0-1-1l-5.656,5.657H398.6l-4.875,4.875h-28.3l8.945-8.945a3.971,3.971,0,1,0-1-1l-9.946,9.946H300.049L248.281,367.3V513.337H249.7V367.886l50.938-50.938h37.741l16.4,16.4H379.2l13.227,13.226a3.971,3.971,0,1,0,1-1l-13.642-13.64h-24.42l-14.987-14.989h53.352l12.028,12.028h30.058l7.316,7.316a4,4,0,1,0,1-1l-7.731-7.731H406.343L395.023,316.24l4.167-4.167H442.1l13.141,13.141h23.195a3.959,3.959,0,1,0,3.892-4.671Zm-30.8-21.59a3.278,3.278,0,1,1-3.277,3.278A3.282,3.282,0,0,1,451.527,298.953Z" transform="translate(87.087 113.35)" fill="#aaa"/>
    <path id="Path_213" data-name="Path 213" d="M46.575,189.364a3.936,3.936,0,0,0-.708-2.253l8.685-8.685v15.314a3.963,3.963,0,1,0,1.415,0V177.01l7.06-7.062H83.268a3.963,3.963,0,1,0,0-1.415H62.442L44.867,186.11a3.96,3.96,0,1,0,1.708,3.254Z" transform="translate(0 58.405)" fill="#aaa"/>
    <path id="Path_214" data-name="Path 214" d="M75.973,206.53a3.963,3.963,0,1,0-2.253-7.219l-9.073-9.071v-7.683a3.962,3.962,0,1,0-1.415,0v8.269l9.488,9.486a3.957,3.957,0,0,0,3.254,6.218Z" transform="translate(8.86 62.32)" fill="#aaa"/>
  </g>
</svg>
